<?xml version="1.0" encoding="UTF-8" standalone="no"?>
<!DOCTYPE svg PUBLIC "-//W3C//DTD SVG 1.1//EN" "http://www.w3.org/Graphics/SVG/1.1/DTD/svg11.dtd">
<svg width="100%" height="100%" viewBox="0 0 128 128" version="1.1" xmlns="http://www.w3.org/2000/svg" xmlns:xlink="http://www.w3.org/1999/xlink" xml:space="preserve" xmlns:serif="http://www.serif.com/" style="fill-rule:evenodd;clip-rule:evenodd;stroke-linejoin:round;stroke-miterlimit:2;">
    <g id="Red-Hat" serif:id="Red Hat">
        <g id="portfolio">
            <g>
                <g transform="matrix(1.02908,0,0,1.02908,-1.8614,-7.56609)">
                    <g transform="matrix(0.97204,0,0,0.707146,-2.47957,25.9805)">
                        <path d="M130.107,39.361C130.107,22.33 117.747,16.913 102.524,16.913L34.26,16.913C19.036,16.913 6.677,22.33 6.677,39.361L6.677,123.395C6.677,140.426 19.036,140.343 34.26,140.343L102.524,140.343C117.747,140.343 130.107,140.426 130.107,123.395L130.107,39.361Z" style="fill:rgb(238,0,1);"/>
                    </g>
                    <g transform="matrix(0.400683,0,0,0.229511,36.5966,10.0392)">
                        <path d="M130.107,72.088C130.107,55.057 124.178,20.004 68.112,20.144C12.046,20.285 6.677,55.057 6.677,72.088L6.677,218.718C6.677,235.749 19.846,242.815 20.625,233.96C30.153,125.741 0.37,158.655 66.54,161.228C133.711,163.841 108.152,106.242 116.158,233.96C116.719,242.903 130.107,235.749 130.107,218.718L130.107,72.088Z" style="fill:rgb(238,0,1);"/>
                    </g>
                </g>
                <g transform="matrix(2.10755,0,0,1.53847,-72.6782,-37.0131)">
                    <path d="M78.936,66.543C78.936,62.657 76.633,59.501 73.796,59.501L55.908,59.501C53.071,59.501 50.767,62.657 50.767,66.543L50.767,80.628C50.767,84.515 53.071,87.67 55.908,87.67L73.796,87.67C76.633,87.67 78.936,84.515 78.936,80.628L78.936,66.543Z" style="fill:rgb(46,46,46);"/>
                </g>
                <g transform="matrix(2.31388,1.64091e-16,-1.64091e-16,-0.973976,-83.0931,93.0132)">
                    <path d="M63.57,19.933L73.908,40.61L53.232,40.61L63.57,19.933Z" style="fill:rgb(238,0,1);"/>
                </g>
            </g>
        </g>
    </g>
</svg>
