<?xml version="1.0" encoding="UTF-8" standalone="no"?>
<!DOCTYPE svg PUBLIC "-//W3C//DTD SVG 1.1//EN" "http://www.w3.org/Graphics/SVG/1.1/DTD/svg11.dtd">
<svg width="100%" height="100%" viewBox="0 0 128 128" version="1.1" xmlns="http://www.w3.org/2000/svg" xmlns:xlink="http://www.w3.org/1999/xlink" xml:space="preserve" xmlns:serif="http://www.serif.com/" style="fill-rule:evenodd;clip-rule:evenodd;stroke-linejoin:round;stroke-miterlimit:2;">
    <g transform="matrix(1.01168,0,0,1.01168,-0.74772,-0.747614)">
        <path d="M63.994,3.016C98.522,3.016 126.541,31.01 126.541,65.545C126.541,93.171 108.627,116.605 83.78,124.877C80.652,125.449 79.512,123.518 79.512,121.86C79.512,120.378 79.59,115.883 79.59,112C79.59,108.117 79.47,102.055 79.397,101.535C78.829,97.497 77.295,94.741 75.506,93.179C89.39,91.601 101.751,87.157 103.491,65.354C104.033,58.551 103.276,49.633 99.277,45.261C100.237,42.015 99.55,33.487 94.499,26.898C91.956,23.58 89.208,19.258 76.618,29.829C71.755,28.474 68.204,28.077 64,28.077C59.796,28.077 56.259,28.474 51.396,29.829C38.806,19.258 36.058,23.58 33.515,26.898C28.464,33.487 27.777,42.015 28.737,45.261C24.737,49.633 23.98,58.551 24.523,65.354C26.263,87.157 38.624,91.601 52.508,93.179C50.719,94.741 49.185,97.497 48.617,101.535C41.64,104.055 30.068,93.463 26.284,98.638C20.708,106.263 42.39,116.852 48.444,114.602C48.475,119.819 48.502,120.378 48.502,121.86C48.502,123.518 47.362,125.449 44.234,124.877C19.387,116.605 1.473,93.171 1.473,65.545C1.473,31.01 29.467,3.016 63.994,3.016Z" style="fill:#56b6c2;"/>
    </g>
</svg>
