<?xml version="1.0" encoding="UTF-8" standalone="no"?>
<!DOCTYPE svg PUBLIC "-//W3C//DTD SVG 1.1//EN" "http://www.w3.org/Graphics/SVG/1.1/DTD/svg11.dtd">
<svg width="100%" height="100%" viewBox="0 0 128 128" version="1.1" xmlns="http://www.w3.org/2000/svg" xmlns:xlink="http://www.w3.org/1999/xlink" xml:space="preserve" xmlns:serif="http://www.serif.com/" style="fill-rule:evenodd;clip-rule:evenodd;stroke-linejoin:round;stroke-miterlimit:2;">
    <g id="phone" transform="matrix(1.03117,0,0,1.02516,-4.14702,-3.34858)">
        <path d="M29.093,5.959C18.334,14.474 7.656,24.288 7.244,35.33C7.07,39.988 16.197,69.776 36.599,92.207C57.282,114.947 91.006,127.857 95.809,126.706C105.35,124.42 119.914,111.053 122.601,107.846C126.664,102.994 124.718,101.514 122.051,99.066C120.426,97.575 101.562,82.606 100.761,82.041C99.961,81.476 94.667,80.22 92.602,83.455C90.537,86.691 86.33,91.394 84.918,92.712C83.505,94.03 81.027,95.688 77.521,93.951C74.015,92.215 60.394,80.881 54.088,74.121C48.349,67.968 40.237,54.991 39.688,53.391C39.139,51.79 37.968,48.361 40.145,46.544C42.322,44.728 50.769,37.684 51.711,37.024C52.652,36.365 55.145,34.351 54.058,31.657C52.972,28.964 40.349,11.856 37.754,8.372C35.067,4.764 32.404,3.338 29.093,5.959Z" style="fill:#56b6c2;"/>
    </g>
</svg>
